<svg width="14" height="15" viewBox="0 0 14 15" fill="none" xmlns="http://www.w3.org/2000/svg">
<path fill-rule="evenodd" clip-rule="evenodd" d="M7 13.1832C10.2861 13.1832 12.95 10.5192 12.95 7.23315C12.95 3.94706 10.2861 1.28315 7 1.28315C3.71391 1.28315 1.05 3.94706 1.05 7.23315C1.05 10.5192 3.71391 13.1832 7 13.1832ZM7 14.2332C10.866 14.2332 14 11.0991 14 7.23315C14 3.36716 10.866 0.233154 7 0.233154C3.13401 0.233154 0 3.36716 0 7.23315C0 11.0991 3.13401 14.2332 7 14.2332Z" fill="#608289"/>
<path fill-rule="evenodd" clip-rule="evenodd" d="M7.03752 11.274C6.65093 11.274 6.33752 10.9606 6.33752 10.574L6.33752 6.4197C6.33752 6.0331 6.65092 5.7197 7.03752 5.7197C7.42412 5.7197 7.73752 6.0331 7.73752 6.4197L7.73752 10.574C7.73752 10.9606 7.42412 11.274 7.03752 11.274Z" fill="#608289"/>
<path fill-rule="evenodd" clip-rule="evenodd" d="M7.03752 4.98218C6.65093 4.98218 6.33752 4.66878 6.33752 4.28218L6.33752 4.24988C6.33752 3.86328 6.65093 3.54988 7.03752 3.54988C7.42412 3.54988 7.73752 3.86328 7.73752 4.24988L7.73752 4.28218C7.73752 4.66878 7.42412 4.98218 7.03752 4.98218Z" fill="#608289"/>
</svg>
